<?xml version="1.0" encoding="UTF-8"?>
<svg id="Layer_2" data-name="Layer 2" xmlns="http://www.w3.org/2000/svg" viewBox="0 0 310.45 70.08">
  <defs>
    <style>
      .cls-1 {
        fill: #63666a;
      }

      .cls-1, .cls-2, .cls-3, .cls-4, .cls-5, .cls-6 {
        stroke-width: 0px;
      }

      .cls-2 {
        fill: #2484c6;
      }

      .cls-3 {
        fill: #d4d6d7;
      }

      .cls-4 {
        fill: #8fad15;
      }

      .cls-5 {
        fill: #006333;
      }

      .cls-6 {
        fill: #007a41;
      }
    </style>
  </defs>
  <g id="Layer_1-2" data-name="Layer 1">
    <g>
      <g>
        <rect class="cls-1" x="86.28" y="10.77" width="2.47" height="19.84"/>
        <path class="cls-1" d="m95.41,20.14c.77-1.05,2.39-2.18,4.18-2.18,2.14,0,3.14,1.04,3.14,3.26v9.47h2.38v-10.16c0-3.13-1.57-4.72-4.66-4.72-2.04,0-3.97,1.14-5.04,2.32v-1.96h-2.38v14.52h2.38v-10.55Z"/>
        <path class="cls-1" d="m112.89,31.05c1.17,0,2.06-.31,2.73-.94l.04-.03-.72-1.82-.08.09c-.26.28-.81.57-1.46.57-.88,0-1.38-.65-1.38-1.77v-8.85h2.91v-2.11h-2.91v-3.93h-2.38v3.93h-2.38v2.11h2.38v9.33c0,2.22,1.16,3.44,3.26,3.44Z"/>
        <path class="cls-1" d="m123.84,31.05c2.35,0,4.29-.75,5.76-2.22l.05-.05-1.16-1.58-.06.06c-1.09,1.12-2.73,1.79-4.38,1.79-2.79,0-4.87-1.98-5.1-4.82h11.63v-.64c0-4.65-2.8-7.78-6.98-7.78s-7.15,3.27-7.15,7.6,3.04,7.63,7.39,7.63Zm-4.89-8.6c.16-2.32,1.78-4.64,4.62-4.64,1.83,0,4.57,1.24,4.65,4.64h-9.28Z"/>
        <path class="cls-1" d="m136.1,20.46c.66-1.15,2.51-2.24,3.82-2.24.34,0,.6.03.88.09l.09.02v-2.46h-.07c-1.76,0-3.43.88-4.72,2.48v-2.18h-2.38v14.52h2.38v-10.23Z"/>
        <path class="cls-1" d="m150.68,15.81c-2.04,0-3.97,1.14-5.04,2.32v-1.96h-2.38v14.52h2.38v-10.55c.77-1.05,2.39-2.18,4.18-2.18,2.14,0,3.14,1.04,3.14,3.26v9.47h2.38v-10.16c0-3.13-1.57-4.72-4.66-4.72Z"/>
        <path class="cls-1" d="m170.62,30.69v-9.95c0-3.13-2.05-4.92-5.64-4.92-2.38,0-4.22.76-5.8,2.4l-.04.04,1.13,1.67.06-.07c1.26-1.34,2.64-1.97,4.35-1.97,2.16,0,3.55,1.16,3.55,2.96v2.39c-1.14-1.22-2.71-1.84-4.69-1.84-2.46,0-5.1,1.5-5.1,4.8s2.63,4.83,5.1,4.83c1.88,0,3.5-.65,4.69-1.88v1.52h2.38Zm-2.38-5.79v2.66c-.8,1.09-2.25,1.73-3.88,1.73-2.04,0-3.47-1.25-3.47-3.05s1.43-3.08,3.47-3.08c1.63,0,3.08.65,3.88,1.73Z"/>
        <path class="cls-1" d="m175.08,27.61c0,2.22,1.16,3.44,3.26,3.44,1.17,0,2.06-.31,2.73-.94l.04-.03-.72-1.82-.08.09c-.26.28-.81.57-1.46.57-.88,0-1.38-.65-1.38-1.77v-8.85h2.91v-2.11h-2.91v-3.93h-2.38v3.93h-2.38v2.11h2.38v9.33Z"/>
        <path class="cls-1" d="m185.32,14.27c.88,0,1.59-.7,1.59-1.56s-.71-1.59-1.59-1.59-1.56.73-1.56,1.59.7,1.56,1.56,1.56Z"/>
        <rect class="cls-1" x="184.15" y="16.17" width="2.38" height="14.52"/>
        <path class="cls-1" d="m202.05,18.04c-1.32-1.46-3.13-2.23-5.25-2.23s-3.93.77-5.25,2.23c-1.25,1.38-1.93,3.29-1.93,5.37,0,4.42,3.02,7.63,7.18,7.63s7.18-3.21,7.18-7.63c0-2.09-.69-4-1.93-5.37Zm-5.25-.08c3.22,0,4.69,2.83,4.69,5.46s-1.47,5.49-4.69,5.49-4.72-2.84-4.72-5.49,1.48-5.46,4.72-5.46Z"/>
        <path class="cls-1" d="m219.27,30.69v-10.16c0-3.13-1.57-4.72-4.66-4.72-2.04,0-3.97,1.14-5.04,2.32v-1.96h-2.38v14.52h2.38v-10.55c.77-1.05,2.39-2.18,4.18-2.18,2.14,0,3.14,1.04,3.14,3.26v9.47h2.38Z"/>
        <path class="cls-1" d="m234.55,30.69v-9.95c0-3.13-2.05-4.92-5.64-4.92-2.37,0-4.22.76-5.8,2.4l-.04.04,1.13,1.67.06-.07c1.26-1.34,2.64-1.97,4.35-1.97,2.16,0,3.55,1.16,3.55,2.96v2.39c-1.14-1.22-2.71-1.84-4.69-1.84-2.46,0-5.1,1.5-5.1,4.8s2.63,4.83,5.1,4.83c1.88,0,3.5-.65,4.69-1.88v1.52h2.38Zm-2.38-5.79v2.66c-.8,1.09-2.25,1.73-3.88,1.73-2.04,0-3.47-1.25-3.47-3.05s1.43-3.08,3.47-3.08c1.63,0,3.08.65,3.88,1.73Z"/>
        <rect class="cls-1" x="238.53" y="10.7" width="2.38" height="19.99"/>
        <polygon class="cls-1" points="85.58 41.56 91.85 41.56 91.85 59.2 94.32 59.2 94.32 41.56 100.63 41.56 100.63 39.36 85.58 39.36 85.58 41.56"/>
        <path class="cls-1" d="m103.38,46.94v-2.18h-2.38v14.52h2.38v-10.23c.66-1.15,2.51-2.24,3.82-2.24.34,0,.6.03.88.09l.09.02v-2.46h-.07c-1.76,0-3.43.88-4.72,2.48Z"/>
        <path class="cls-1" d="m116.31,44.4c-2.38,0-4.22.76-5.8,2.4l-.04.04,1.13,1.67.06-.07c1.26-1.34,2.64-1.97,4.35-1.97,2.16,0,3.55,1.16,3.55,2.96v2.39c-1.14-1.22-2.71-1.84-4.69-1.84-2.46,0-5.1,1.5-5.1,4.8s2.63,4.83,5.1,4.83c1.88,0,3.5-.65,4.69-1.88v1.52h2.38v-9.95c0-3.13-2.05-4.92-5.64-4.92Zm3.26,9.08v2.66c-.8,1.09-2.25,1.73-3.88,1.73-2.04,0-3.47-1.25-3.47-3.05s1.43-3.08,3.47-3.08c1.63,0,3.08.65,3.88,1.73Z"/>
        <polygon class="cls-1" points="130.79 56.42 126.05 44.76 123.48 44.76 129.5 59.23 129.52 59.28 132.06 59.28 138.1 44.76 135.5 44.76 130.79 56.42"/>
        <path class="cls-1" d="m145.9,44.4c-4.08,0-7.15,3.27-7.15,7.6s3.04,7.63,7.39,7.63c2.35,0,4.29-.75,5.76-2.22l.05-.05-1.16-1.58-.06.06c-1.09,1.12-2.73,1.79-4.38,1.79-2.79,0-4.87-1.98-5.1-4.82h11.63v-.64c0-4.65-2.8-7.78-6.98-7.78Zm-4.65,6.63c.16-2.32,1.78-4.64,4.62-4.64,1.83,0,4.57,1.24,4.65,4.64h-9.28Z"/>
        <rect class="cls-1" x="156.05" y="39.29" width="2.38" height="19.99"/>
        <path class="cls-1" d="m176.51,39.36l-7.97,19.84h2.83l1.76-4.4h9.88l1.76,4.4h2.83l-8-19.84h-3.06Zm-2.68,13.24l4.22-10.68,4.19,10.68h-8.42Z"/>
        <path class="cls-1" d="m195.2,50.67c-1.85-.44-3.45-.82-3.45-2.11s1.28-2.19,3.11-2.19c1.69,0,3.31.68,4.23,1.79l.06.08,1.13-1.68-.04-.04c-1.38-1.38-3.24-2.1-5.38-2.1-3.2,0-5.43,1.73-5.43,4.21,0,3,2.77,3.68,5.21,4.27,1.98.48,3.69.9,3.69,2.39s-1.27,2.39-3.32,2.39-3.8-1.02-4.67-2.03l-.06-.07-1.25,1.73.04.04c1.43,1.52,3.4,2.28,5.86,2.28,3.48,0,5.73-1.73,5.73-4.42,0-3.25-2.89-3.94-5.45-4.55Z"/>
        <path class="cls-1" d="m208.8,50.67c-1.85-.44-3.45-.82-3.45-2.11s1.28-2.19,3.11-2.19c1.69,0,3.31.68,4.23,1.79l.06.08,1.13-1.68-.04-.04c-1.38-1.38-3.24-2.1-5.38-2.1-3.2,0-5.43,1.73-5.43,4.21,0,3,2.77,3.68,5.21,4.27,1.98.48,3.69.9,3.69,2.39s-1.27,2.39-3.32,2.39-3.8-1.02-4.67-2.03l-.06-.07-1.25,1.73.04.04c1.43,1.52,3.4,2.28,5.86,2.28,3.48,0,5.73-1.73,5.73-4.42,0-3.25-2.89-3.94-5.45-4.55Z"/>
        <path class="cls-1" d="m223.68,44.4c-2.12,0-3.93.77-5.25,2.23-1.25,1.38-1.93,3.29-1.93,5.38,0,4.42,3.02,7.63,7.18,7.63s7.18-3.21,7.18-7.63c0-2.09-.69-4-1.93-5.38-1.32-1.46-3.13-2.23-5.25-2.23Zm0,2.14c3.22,0,4.69,2.83,4.69,5.46s-1.47,5.49-4.69,5.49-4.72-2.84-4.72-5.49,1.48-5.46,4.72-5.46Z"/>
        <path class="cls-1" d="m240.61,46.54c1.52,0,2.7.6,3.6,1.84l.05.07,1.6-1.47-.04-.05c-1.33-1.72-3.02-2.53-5.32-2.53-4.2,0-7.24,3.2-7.24,7.6s3.05,7.63,7.24,7.63c2.3,0,3.99-.8,5.32-2.53l.04-.05-1.6-1.47-.05.07c-.92,1.24-2.1,1.84-3.6,1.84-2.93,0-4.89-2.21-4.89-5.49s1.97-5.46,4.89-5.46Z"/>
        <rect class="cls-1" x="248.37" y="44.76" width="2.38" height="14.52"/>
        <path class="cls-1" d="m249.55,39.38c-.85,0-1.56.73-1.56,1.59s.7,1.56,1.56,1.56,1.59-.7,1.59-1.56-.71-1.59-1.59-1.59Z"/>
        <path class="cls-1" d="m260.38,44.4c-2.37,0-4.22.76-5.8,2.4l-.04.04,1.13,1.67.06-.07c1.26-1.34,2.64-1.97,4.35-1.97,2.16,0,3.55,1.16,3.55,2.96v2.39c-1.14-1.22-2.71-1.84-4.69-1.84-2.46,0-5.1,1.5-5.1,4.8s2.63,4.83,5.1,4.83c1.88,0,3.5-.65,4.69-1.88v1.52h2.38v-9.95c0-3.13-2.05-4.92-5.64-4.92Zm3.26,9.08v2.66c-.8,1.09-2.25,1.73-3.88,1.73-2.04,0-3.47-1.25-3.47-3.05s1.43-3.08,3.47-3.08c1.63,0,3.08.65,3.88,1.73Z"/>
        <path class="cls-1" d="m275.71,56.92c-.26.28-.81.57-1.46.57-.88,0-1.38-.65-1.38-1.77v-8.85h2.92v-2.11h-2.92v-3.93h-2.38v3.93h-2.38v2.11h2.38v9.33c0,2.22,1.16,3.44,3.26,3.44,1.17,0,2.06-.31,2.73-.94l.04-.03-.72-1.82-.08.09Z"/>
        <path class="cls-1" d="m284.45,44.4c-4.08,0-7.15,3.27-7.15,7.6s3.04,7.63,7.39,7.63c2.35,0,4.29-.75,5.76-2.22l.05-.05-1.16-1.58-.06.06c-1.09,1.12-2.73,1.79-4.38,1.79-2.79,0-4.87-1.98-5.1-4.82h11.63v-.64c0-4.65-2.8-7.78-6.98-7.78Zm-4.65,6.63c.16-2.32,1.78-4.64,4.62-4.64,1.83,0,4.57,1.24,4.65,4.64h-9.28Z"/>
        <path class="cls-1" d="m299.44,50.67c-1.85-.44-3.45-.82-3.45-2.11s1.28-2.19,3.11-2.19c1.69,0,3.31.68,4.23,1.79l.06.08,1.13-1.68-.04-.04c-1.38-1.38-3.24-2.1-5.38-2.1-3.2,0-5.43,1.73-5.43,4.21,0,3,2.77,3.68,5.21,4.27,1.98.48,3.69.9,3.69,2.39s-1.27,2.39-3.32,2.39-3.8-1.02-4.67-2.03l-.06-.07-1.25,1.73.04.04c1.43,1.52,3.4,2.28,5.86,2.28,3.48,0,5.73-1.73,5.73-4.42,0-3.25-2.89-3.94-5.45-4.55Z"/>
        <g>
          <path class="cls-1" d="m308.59,55.83c-1.03,0-1.86.83-1.86,1.86s.84,1.86,1.86,1.86,1.86-.84,1.86-1.86-.83-1.86-1.86-1.86Zm0,3.48c-.9,0-1.62-.73-1.62-1.62s.72-1.61,1.62-1.61,1.61.71,1.61,1.61-.72,1.62-1.61,1.62Z"/>
          <path class="cls-1" d="m309.43,57.28c0-.4-.32-.65-.68-.65h-.87v2.14h.28v-.84h.39l.55.84h.35l-.57-.85c.12,0,.55-.16.55-.63Zm-1.27.39v-.79h.59c.18,0,.39.17.39.4,0,.22-.2.39-.39.39h-.59Z"/>
        </g>
      </g>
      <g>
        <circle class="cls-3" cx="35.04" cy="35.04" r="35.04"/>
        <g>
          <polygon class="cls-2" points="24.09 29.29 7.69 43.59 32.58 40.92 32.58 40.92 24.09 29.29"/>
          <polygon class="cls-6" points="47.03 39.37 32.57 40.92 47.04 60.73 47.03 39.37"/>
          <polygon class="cls-5" points="24.09 29.29 32.58 40.92 47.03 39.37 47.03 39.25 24.24 29.16 24.09 29.29"/>
          <polygon class="cls-4" points="47.04 9.26 24.24 29.16 47.03 39.25 47.04 9.26"/>
        </g>
      </g>
    </g>
  </g>
</svg>